<?xml version="1.0" encoding="UTF-8"?> <svg xmlns="http://www.w3.org/2000/svg" xmlns:xlink="http://www.w3.org/1999/xlink" width="240.956" height="106.482" viewBox="0 0 240.956 106.482"><defs><clipPath id="clip-path"><rect id="Rectángulo_6" data-name="Rectángulo 6" width="240.956" height="106.482" fill="none"></rect></clipPath></defs><g id="Grupo_155" data-name="Grupo 155" transform="translate(-370 -246)"><g id="Grupo_3" data-name="Grupo 3" transform="translate(370 246)"><rect id="Rectángulo_1" data-name="Rectángulo 1" width="75.53" height="75.53" transform="translate(0 0)" fill="#e10613"></rect><g id="Grupo_2" data-name="Grupo 2" transform="translate(0 0)"><g id="Grupo_1" data-name="Grupo 1" clip-path="url(#clip-path)"><path id="Trazado_1" data-name="Trazado 1" d="M69.751,26.228a30.518,30.518,0,0,1,9.276,22.394A30.6,30.6,0,0,1,69.751,71.09a30.517,30.517,0,0,1-22.395,9.276A30.6,30.6,0,0,1,24.889,71.09a30.6,30.6,0,0,1-9.277-22.467,30.514,30.514,0,0,1,9.277-22.395A30.6,30.6,0,0,1,47.356,16.95a30.519,30.519,0,0,1,22.395,9.278M47.356,29.634a18.364,18.364,0,0,0-13.48,5.58,18.282,18.282,0,0,0-5.581,13.408,19.053,19.053,0,0,0,19.061,19.06A19.053,19.053,0,0,0,66.345,48.622,19.054,19.054,0,0,0,47.356,29.634" transform="translate(-9.615 -10.439)" fill="#fff"></path><path id="Trazado_2" data-name="Trazado 2" d="M239.022,21.668,259.1,48.556l20.075-26.888h9.784V81.46H276.273V46.744L262,65.878h-5.8L241.848,46.6V81.46H229.165V21.668Z" transform="translate(-141.131 -13.344)" fill="#1d1d1b"></path><rect id="Rectángulo_2" data-name="Rectángulo 2" width="12.684" height="59.792" transform="translate(168.118 8.324)" fill="#1d1d1b"></rect><path id="Trazado_3" data-name="Trazado 3" d="M563.339,21.668V34.351H536.16V45.223H557.9V57.905H536.16V68.777h27.178V81.46H523.477V21.668Z" transform="translate(-322.383 -13.344)" fill="#1d1d1b"></path><rect id="Rectángulo_3" data-name="Rectángulo 3" width="2.041" height="9.622" transform="translate(0.24 93.07)" fill="#1d1d1b"></rect><path id="Trazado_4" data-name="Trazado 4" d="M16.479,249.848V254.7H14.438v-7.581h2.041v.093a4.113,4.113,0,0,1,4.636.811,3.934,3.934,0,0,1,1.2,2.886V254.7H20.269v-3.791a2.045,2.045,0,0,0-3.487-1.446,2.077,2.077,0,0,0-.3.385" transform="translate(-8.892 -152.008)" fill="#1d1d1b"></path><path id="Trazado_5" data-name="Trazado 5" d="M47.113,251.142a2.232,2.232,0,0,1,.455,1.272,2.349,2.349,0,0,1-.822,1.866,3.355,3.355,0,0,1-2.268.711,5.048,5.048,0,0,1-3.324-1.108l1.283-1.528a3.761,3.761,0,0,0,1.913.6,2.741,2.741,0,0,0,.827-.111q.35-.111.35-.4,0-.256-.478-.385l-1.68-.432a2.394,2.394,0,0,1-1.376-.787,2.271,2.271,0,0,1-.549-1.557,2.232,2.232,0,0,1,.846-1.7,3,3,0,0,1,2.07-.752,5.215,5.215,0,0,1,3.219.98l-1.295,1.516a3.377,3.377,0,0,0-1.633-.455,1.928,1.928,0,0,0-.91.152.431.431,0,0,0-.257.361q0,.245.292.338l1.808.443a2.757,2.757,0,0,1,1.528.98" transform="translate(-25.344 -152.008)" fill="#1d1d1b"></path><path id="Trazado_6" data-name="Trazado 6" d="M67.634,246.355v5.54H65.593v-9.622h2.041v2.041h1.458v2.041Z" transform="translate(-40.395 -149.204)" fill="#1d1d1b"></path><path id="Trazado_7" data-name="Trazado 7" d="M83.725,241.514v1.458H81.684v-1.458Zm0,2.333v7.581H81.684v-7.581Z" transform="translate(-50.305 -148.736)" fill="#1d1d1b"></path><path id="Trazado_8" data-name="Trazado 8" d="M97.538,246.355v5.54H95.5v-9.622h2.041v2.041H99v2.041Z" transform="translate(-58.812 -149.204)" fill="#1d1d1b"></path><path id="Trazado_9" data-name="Trazado 9" d="M116.66,252.438v-4.852H118.7v7.581H116.66v-.093a4.089,4.089,0,0,1-5.831-3.7v-3.79h2.041v3.79a2.045,2.045,0,0,0,3.487,1.446,2.078,2.078,0,0,0,.3-.385" transform="translate(-68.254 -152.475)" fill="#1d1d1b"></path><path id="Trazado_10" data-name="Trazado 10" d="M141.863,246.355v5.54h-2.041v-9.622h2.041v2.041h1.458v2.041Z" transform="translate(-86.109 -149.204)" fill="#1d1d1b"></path><path id="Trazado_11" data-name="Trazado 11" d="M159.845,248.022a4.083,4.083,0,1,1-2.886-1.2,3.931,3.931,0,0,1,2.886,1.2m-2.886.846a2.04,2.04,0,1,0,1.441.595,1.969,1.969,0,0,0-1.441-.595" transform="translate(-94.149 -152.008)" fill="#1d1d1b"></path><path id="Trazado_12" data-name="Trazado 12" d="M199.353,242.273v2.041h-2.333v7.581H194.98v-7.581h-2.333v-2.041Z" transform="translate(-118.642 -149.203)" fill="#1d1d1b"></path><path id="Trazado_13" data-name="Trazado 13" d="M214.542,252.881a1.9,1.9,0,0,0,.525.07,1.949,1.949,0,0,0,1.446-.607,2.149,2.149,0,0,0,.268-.327l1.714,1.108a4.082,4.082,0,1,1-3.429-6.3,3.962,3.962,0,0,1,2.892,1.189,4.84,4.84,0,0,1,.642.816Zm1.061-3.954a2.419,2.419,0,0,0-.537-.058,2.04,2.04,0,0,0-2.041,2.041,1.893,1.893,0,0,0,.07.525Z" transform="translate(-129.935 -152.009)" fill="#1d1d1b"></path><path id="Trazado_14" data-name="Trazado 14" d="M243.188,253.79a4.076,4.076,0,1,1,0-5.773l-1.446,1.446a2,2,0,0,0-1.446-.595,2.041,2.041,0,1,0,1.446,3.475Z" transform="translate(-145.472 -152.009)" fill="#1d1d1b"></path><path id="Trazado_15" data-name="Trazado 15" d="M263.453,249.848V254.7h-2.041v-7.581h2.041v.093a4.089,4.089,0,0,1,5.831,3.7V254.7h-2.041v-3.791a2.045,2.045,0,0,0-3.487-1.446,2.075,2.075,0,0,0-.3.385" transform="translate(-160.99 -152.008)" fill="#1d1d1b"></path><path id="Trazado_16" data-name="Trazado 16" d="M295.1,248.022a4.082,4.082,0,1,1-2.886-1.2,3.931,3.931,0,0,1,2.886,1.2m-2.886.846a2.04,2.04,0,1,0,1.441.595,1.969,1.969,0,0,0-1.441-.595" transform="translate(-177.444 -152.008)" fill="#1d1d1b"></path><rect id="Rectángulo_4" data-name="Rectángulo 4" width="2.041" height="9.622" transform="translate(121.531 93.069)" fill="#1d1d1b"></rect><path id="Trazado_17" data-name="Trazado 17" d="M335.626,241.927a4.083,4.083,0,1,1-2.886-1.2,3.934,3.934,0,0,1,2.886,1.2m-2.886.846a2.041,2.041,0,1,0,1.44.595,1.969,1.969,0,0,0-1.44-.595m-.8-2.916.735-2.927h2.122l-1.225,2.927Z" transform="translate(-202.404 -145.913)" fill="#1d1d1b"></path><path id="Trazado_18" data-name="Trazado 18" d="M361.206,254.606a4.008,4.008,0,0,1-1.749.385,4.082,4.082,0,1,1,1.749-7.779v-.093h2.041v7.441a3.932,3.932,0,0,1-3.93,3.931v-2.041a1.8,1.8,0,0,0,1.324-.542,1.859,1.859,0,0,0,.566-1.3m0-2.648v-2.111a2.092,2.092,0,0,0-.3-.385,2,2,0,0,0-1.446-.595,2.041,2.041,0,1,0,1.446,3.475,2.094,2.094,0,0,0,.3-.385" transform="translate(-218.857 -152.008)" fill="#1d1d1b"></path><path id="Trazado_19" data-name="Trazado 19" d="M386.408,241.514v1.458h-2.041v-1.458Zm0,2.333v7.581h-2.041v-7.581Z" transform="translate(-236.712 -148.736)" fill="#1d1d1b"></path><path id="Trazado_20" data-name="Trazado 20" d="M403.637,253.79a4.076,4.076,0,1,1,0-5.773l-1.446,1.446a2,2,0,0,0-1.446-.595,2.041,2.041,0,1,0,1.446,3.475Z" transform="translate(-244.284 -152.009)" fill="#1d1d1b"></path><path id="Trazado_21" data-name="Trazado 21" d="M427.312,248.022a4.083,4.083,0,1,1-2.886-1.2,3.931,3.931,0,0,1,2.886,1.2m-2.886.846a2.04,2.04,0,1,0,1.441.595,1.969,1.969,0,0,0-1.441-.595" transform="translate(-258.868 -152.008)" fill="#1d1d1b"></path><path id="Trazado_22" data-name="Trazado 22" d="M464.736,242.273l3.231,4.327,3.23-4.327h1.574v9.622h-2.041v-5.587l-2.3,3.079H467.5l-2.31-3.1v5.61H463.15v-9.622Z" transform="translate(-285.23 -149.203)" fill="#1d1d1b"></path><path id="Trazado_23" data-name="Trazado 23" d="M501.769,252.438v-4.852h2.041v7.581h-2.041v-.093a4.09,4.09,0,0,1-5.831-3.7v-3.79h2.041v3.79a2.045,2.045,0,0,0,3.487,1.446,2.078,2.078,0,0,0,.3-.385" transform="translate(-305.423 -152.475)" fill="#1d1d1b"></path><path id="Trazado_24" data-name="Trazado 24" d="M526.972,249.848V254.7h-2.041v-7.581h2.041v.093a4.089,4.089,0,0,1,5.831,3.7V254.7h-2.041v-3.791a2.045,2.045,0,0,0-3.487-1.446,2.075,2.075,0,0,0-.3.385" transform="translate(-323.278 -152.008)" fill="#1d1d1b"></path><path id="Trazado_25" data-name="Trazado 25" d="M557.509,242.273h2.041v9.622h-2.041V251.8a4.082,4.082,0,1,1,0-7.394Zm0,4.77a2.8,2.8,0,0,0-.3-.385,2.041,2.041,0,1,0,0,2.892,2.094,2.094,0,0,0,.3-.385Z" transform="translate(-339.75 -149.203)" fill="#1d1d1b"></path><path id="Trazado_26" data-name="Trazado 26" d="M582.682,241.514v1.458h-2.041v-1.458Zm0,2.333v7.581h-2.041v-7.581Z" transform="translate(-357.587 -148.736)" fill="#1d1d1b"></path><path id="Trazado_27" data-name="Trazado 27" d="M598.767,254.606a4.082,4.082,0,1,1,0-7.394v-.093h2.041V254.7h-2.041Zm0-2.648v-2.111a2.1,2.1,0,0,0-.3-.385,2,2,0,0,0-1.446-.595,2.041,2.041,0,1,0,1.446,3.475,2.1,2.1,0,0,0,.3-.385" transform="translate(-365.159 -152.008)" fill="#1d1d1b"></path><rect id="Rectángulo_5" data-name="Rectángulo 5" width="2.041" height="9.622" transform="translate(238.915 93.069)" fill="#1d1d1b"></rect><line id="Línea_1" data-name="Línea 1" x1="240.175" transform="translate(0.781 84.713)" fill="none" stroke="#1d1d1b" stroke-miterlimit="10" stroke-width="1.417"></line></g></g></g></g></svg> 